<svg xmlns="http://www.w3.org/2000/svg" version="1.1" viewBox="-5.0 -10.0 110.0 135.0">
  <g transform="rotate(90, 50, 57.5)" fill="red">
    <path d="m35.879 45.699h8.6055v8.6055h-8.6055z"/>
    <path d="m45.699 45.699h8.6055v8.6055h-8.6055z"/>
    <path d="m55.516 65.332h8.6055v8.6055h-8.6055z"/>
    <path d="m45.699 75.148h8.6055v8.6055h-8.6055z"/>
    <path d="m45.699 16.246h8.6055v8.6055h-8.6055z"/>
    <path d="m16.246 45.699h8.6055v8.6055h-8.6055z"/>
    <path d="m26.062 45.699h8.6055v8.6055h-8.6055z"/>
    <path d="m65.332 35.879h8.6055v8.6055h-8.6055z"/>
    <path d="m55.516 45.699h8.6055v8.6055h-8.6055z"/>
    <path d="m65.332 45.699h8.6055v8.6055h-8.6055z"/>
    <path d="m75.148 45.699h8.6055v8.6055h-8.6055z"/>
    <path d="m55.516 26.062h8.6055v8.6055h-8.6055z"/>
    <path d="m65.332 55.516h8.6055v8.6055h-8.6055z"/>
  </g>
</svg>
